# xmcd
#
# Track frame offsets: 
#        150
#        18529
#        31440
#        51344
#        67949
#        84769
#        98251
#        114701
#        139112
#        160379
#        173287
#        193670
#        211804
#        225903
#        243396
#        259439
#
# Disc length: 3523 seconds
#
# Revision: 0
# Processed by: cddbd v1.5.2PL0 Copyright (c) Steve Scherf et al.
# Submitted via: ExactAudioCopy v0.99pb4
#
DISCID=c80dc110
DTITLE=Bonnie Raitte - Sigma Sound Philadelphia
DYEAR=1972
DGENRE=Blues
TTITLE0=Mighty Tight Woman
TTITLE1=Rollin' and Tumblin'
TTITLE2=Anyday Woman
TTITLE3=Woman Be Wise
TTITLE4=Thank You
TTITLE5=Bluebird
TTITLE6=Finest Lovin' Man
TTITLE7=Big Road
TTITLE8=Stayed Too Long At The Fair
TTITLE9=Under The Falling Sky
TTITLE10=Walkin' Blues
TTITLE11=Can't Find My Way Home
TTITLE12=Richland Woman Blues
TTITLE13=Blender Blues
TTITLE14=Radio Jingle Promo
TTITLE15=Since I Fell For You
EXTD=
EXTT0=
EXTT1=
EXTT2=
EXTT3=
EXTT4=
EXTT5=
EXTT6=
EXTT7=
EXTT8=
EXTT9=
EXTT10=
EXTT11=
EXTT12=
EXTT13=
EXTT14=
EXTT15=
PLAYORDER=
